<svg width="504" height="578" viewBox="0 0 504 578" fill="none" xmlns="http://www.w3.org/2000/svg">
    <path d="M356.428 10.2109C307.269 -4.63042 266.471 -2.81992 239.814 15.2348C219.076 29.3091 199.344 53.3863 180.394 87.8309C177.379 93.2764 174.221 98.8911 173.424 100.311L171.976 102.982L162.36 99.1324C147.511 93.1881 134.445 90.7544 117.981 90.7403C97.9476 90.7334 92.4968 92.7847 82.5184 104.06C69.7712 118.461 60.0379 138.603 30.7989 210.884C10.128 261.951 8.87647 265.457 4.52984 284.656C-1.3395 310.503 -0.838957 337.691 5.78141 352.815C10.9333 364.402 25.2504 374.518 48.3532 382.784L59.6953 386.871L54.2039 399.64C41.3822 429.583 35.0951 456.095 35.2773 479.148C35.3655 488.028 37.0699 492.112 43.9304 499.621C61.4482 518.805 103.429 534.704 131.647 532.846C156.504 531.231 171.62 518.308 187.759 484.628C192.221 475.377 199.146 457.512 200.982 450.461L201.776 447.528L215.447 453.001L229.184 458.5L223.197 472.508C214.354 493.082 211.125 506.455 211.846 519.822C212.941 540.217 219.267 549.25 241.302 562.078C251.77 568.159 271.393 575.258 280.98 576.526C289.154 577.53 296.372 576.942 300.437 574.941C306.161 572.016 320.922 557.893 331.475 545.184C350.176 522.735 363.582 500.812 396.155 439.92C422.751 390.167 442.665 340.99 450.147 306.943C450.954 303.033 451.15 302.733 452.967 302.176C464.588 298.739 470.966 294.942 478.816 286.519C487.684 277.067 491.026 271.752 496.386 258.552C501.329 246.395 502.566 241.22 503.455 229.33C504.048 221.781 502.898 210.057 500.968 202.934C499.471 197.573 492.025 180.909 488.278 174.723C487.283 173.039 484.912 169.671 482.961 167.151L479.478 162.582L480.596 156.755C483.508 141.139 480.284 122.461 470.621 99.7699C459.189 72.9684 434.839 48.8579 398.411 28.3784C391.646 24.612 363.007 12.1646 356.428 10.2109ZM384.409 43.6374C395.008 49.0141 403.435 54.1263 412.426 60.6737C433.928 76.1606 447.638 92.9126 454.328 111.844C455.797 116.136 456.205 119.096 456.159 124.899C456.028 136.034 455.657 143.974 455.291 144.13C455.108 144.208 452.138 142.339 448.683 139.973C434.353 130.079 427.248 126.403 404.484 116.912C349.72 94.0815 317.401 88.93 292.893 99.1516C282.149 103.619 275.59 109.007 270.382 117.656C264.939 126.514 254.05 153.905 251.29 165.349C246.994 183.662 245.623 197.325 246.893 210.457C247.541 216.991 248.25 219.77 251.226 226.555C266.565 262.177 301.753 284.806 358.558 295.527C377.026 299.065 405.904 302.763 415.869 302.897C417.006 302.899 416.55 304.228 411.163 316.359C401.066 339.304 393.419 353.857 386.512 363.338C377.764 375.333 357.744 388.182 337.312 395.047C294.867 409.124 246.749 401.352 212.943 374.892C200.967 365.562 193.568 356.175 187.342 342.721C168.728 302.008 169.931 253.504 191.224 185.526C195.681 171.36 214.616 124.058 222.849 106.716C238.191 74.0783 254.789 41.3379 258.145 36.9362C271.608 19.4205 308.417 16.7689 351.454 30.218C358.4 32.3939 377.972 40.3801 384.409 43.6374ZM399.592 139.371C425.303 153.065 443.01 165.899 455.827 179.95C463.84 188.752 468.464 195.592 471.637 203.59C474.85 211.68 475.563 218.24 474.318 227.796C473.553 233.688 472.784 236.177 468.976 245.69C465.116 255.332 464.111 257.274 461.251 260.816C446.755 278.447 414.382 282.723 372.93 272.327C361.184 269.439 335.542 259.174 323.91 252.779C288.241 233.057 270.436 191.081 282.585 155.425C289.676 134.678 303.968 122.106 323.345 119.582C344.474 116.852 369.838 123.453 399.592 139.371ZM154.599 128.758C154.992 129.671 146.595 152.163 143.307 158.86L140.306 164.84L130.102 160.755C117.582 155.819 112.298 154.988 99.6144 155.959C94.7502 156.355 90.8271 156.296 90.6305 155.84C90.4338 155.383 92.3246 150.47 94.79 144.88C99.5249 134 102.919 128.934 108.381 124.77C114.221 120.229 122.431 118.3 130.998 119.461C135.314 120.055 154.074 127.414 154.599 128.758Z" fill="#0C0C0C" />
</svg>
    