<svg width="14" height="14" viewBox="0 0 14 14" fill="none" xmlns="http://www.w3.org/2000/svg">
    <path d="M1 9C0.45 9 0 9.45 0 10V13C0 13.55 0.45 14 1 14H4C4.55 14 5 13.55 5 13C5 12.45 4.55 12 4 12H2V10C2 9.45 1.55 9 1 9ZM1 5C1.55 5 2 4.55 2 4V2H4C4.55 2 5 1.55 5 1C5 0.45 4.55 0 4 0H1C0.45 0 0 0.45 0 1V4C0 4.55 0.45 5 1 5ZM12 12H10C9.45 12 9 12.45 9 13C9 13.55 9.45 14 10 14H13C13.55 14 14 13.55 14 13V10C14 9.45 13.55 9 13 9C12.45 9 12 9.45 12 10V12ZM9 1C9 1.55 9.45 2 10 2H12V4C12 4.55 12.45 5 13 5C13.55 5 14 4.55 14 4V1C14 0.45 13.55 0 13 0H10C9.45 0 9 0.45 9 1Z" fill="#323232" />
</svg>
    