<svg width="16" height="12" viewBox="0 0 16 12" fill="none" xmlns="http://www.w3.org/2000/svg">
    <path d="M13.5447 1.06862C12.5249 0.615587 11.4313 0.281812 10.2879 0.0906457C10.2671 0.0869562 10.2463 0.0961764 10.2356 0.114617C10.0949 0.356801 9.93915 0.67275 9.83006 0.921085C8.60027 0.74283 7.37679 0.74283 6.17221 0.921085C6.0631 0.66723 5.90166 0.356801 5.76038 0.114617C5.74966 0.0967916 5.72886 0.0875715 5.70803 0.0906457C4.56527 0.281201 3.47171 0.614976 2.45129 1.06862C2.44246 1.07231 2.43488 1.07846 2.42986 1.08644C0.355594 4.08675 -0.212633 7.01331 0.0661201 9.90359C0.0673814 9.91773 0.0755799 9.93125 0.086932 9.93985C1.45547 10.9129 2.78114 11.5036 4.08219 11.8952C4.10301 11.9013 4.12507 11.894 4.13832 11.8773C4.44608 11.4704 4.72043 11.0414 4.95565 10.5902C4.96953 10.5638 4.95628 10.5324 4.92791 10.522C4.49275 10.3621 4.0784 10.1673 3.67982 9.946C3.64829 9.92818 3.64577 9.88452 3.67477 9.86362C3.75865 9.80277 3.84255 9.73945 3.92264 9.67552C3.93713 9.66385 3.95732 9.66138 3.97435 9.66876C6.59286 10.8262 9.4277 10.8262 12.0153 9.66876C12.0323 9.66077 12.0525 9.66324 12.0677 9.67491C12.1478 9.73884 12.2316 9.80277 12.3161 9.86362C12.3451 9.88452 12.3433 9.92818 12.3117 9.946C11.9131 10.1716 11.4988 10.3621 11.063 10.5213C11.0346 10.5318 11.022 10.5638 11.0359 10.5902C11.2762 11.0408 11.5505 11.4698 11.8526 11.8767C11.8652 11.894 11.8879 11.9013 11.9087 11.8952C13.2161 11.5036 14.5417 10.9129 15.9103 9.93985C15.9223 9.93125 15.9298 9.91834 15.9311 9.9042C16.2647 6.56272 15.3723 3.66016 13.5655 1.08706C13.5611 1.07846 13.5535 1.07231 13.5447 1.06862ZM5.34668 8.14371C4.55833 8.14371 3.90876 7.44298 3.90876 6.5824C3.90876 5.72183 4.54574 5.02109 5.34668 5.02109C6.15392 5.02109 6.79721 5.72798 6.78459 6.5824C6.78459 7.44298 6.14761 8.14371 5.34668 8.14371ZM10.6632 8.14371C9.87484 8.14371 9.22526 7.44298 9.22526 6.5824C9.22526 5.72183 9.86222 5.02109 10.6632 5.02109C11.4704 5.02109 12.1137 5.72798 12.1011 6.5824C12.1011 7.44298 11.4704 8.14371 10.6632 8.14371Z" fill="white" fill-opacity="0.8" />
</svg>
    