<svg width="10" height="13" viewBox="0 0 10 13" fill="none" xmlns="http://www.w3.org/2000/svg">
    <path d="M5.00004 8.00061C6.10671 8.00061 6.99337 7.10728 6.99337 6.00061L7.00004 2.00061C7.00004 0.893944 6.10671 0.000610352 5.00004 0.000610352C3.89337 0.000610352 3.00004 0.893944 3.00004 2.00061V6.00061C3.00004 7.10728 3.89337 8.00061 5.00004 8.00061ZM8.53337 6.00061C8.53337 8.00061 6.84004 9.40061 5.00004 9.40061C3.16004 9.40061 1.46671 8.00061 1.46671 6.00061H0.333374C0.333374 8.28061 2.14671 10.1539 4.33337 10.4806V12.6673H5.66671V10.4806C7.85337 10.1606 9.66671 8.28061 9.66671 6.00061H8.53337Z" fill="white" />
</svg>
    